<svg xmlns="http://www.w3.org/2000/svg" width="53" height="53" fill="none" viewBox="0 0 53 53"><path fill="#0080FF" d="M26.97 51.9621V41.8921C37.6289 41.8921 45.9028 31.3215 41.81 20.1032C40.3083 15.9515 36.9811 12.6243 32.8294 11.1226C21.6111 7.05929 11.0406 15.3037 11.0406 25.9626H1C1 8.97318 17.43 -4.27682 35.2439 1.28818C43.0172 3.73207 49.23 9.9154 51.6444 17.6887C57.2094 35.5321 43.9889 51.9621 26.97 51.9621Z"/><path fill="#0080FF" d="M26.9994 41.9215H16.9883V31.9104H26.9994V41.9215Z"/><path fill="#0080FF" d="M16.9879 49.636H9.27344V41.9215H16.9879V49.636Z"/><path fill="#0080FF" d="M9.27353 41.9215H2.8252V35.4732H9.27353V41.9215Z"/></svg>